<svg xmlns="http://www.w3.org/2000/svg" version="1.1" xmlns:xlink="http://www.w3.org/1999/xlink" xmlns:svgjs="http://svgjs.dev/svgjs" width="500" height="500"><svg xmlns="http://www.w3.org/2000/svg" xmlns:xlink="http://www.w3.org/1999/xlink" width="500" zoomAndPan="magnify" viewBox="0 0 375 374.999991" height="500" preserveAspectRatio="xMidYMid meet" version="1.0"><defs><clipPath id="SvgjsClipPath1015"><path d="M 291 226 L 315.996094 226 L 315.996094 233 L 291 233 Z M 291 226 " clip-rule="nonzero"></path></clipPath></defs><path fill="#5e17eb" d="M 71.433594 226.527344 L 54.398438 226.527344 C 50.488281 226.527344 50.488281 232.589844 54.398438 232.589844 L 71.433594 232.589844 C 75.34375 232.589844 75.34375 226.527344 71.433594 226.527344 Z M 71.433594 226.527344 " fill-opacity="1" fill-rule="nonzero"></path><path fill="#5e17eb" d="M 88.402344 170.941406 L 73.175781 162.480469 C 69.753906 160.578125 66.699219 165.816406 70.117188 167.714844 L 85.34375 176.175781 C 88.761719 178.078125 91.820312 172.839844 88.402344 170.941406 Z M 88.402344 170.941406 " fill-opacity="1" fill-rule="nonzero"></path><path fill="#5e17eb" d="M 129.765625 131.039062 L 121.476562 116.359375 C 119.550781 112.953125 114.3125 116.007812 116.238281 119.417969 L 124.527344 134.097656 C 126.449219 137.503906 131.6875 134.449219 129.765625 131.039062 Z M 129.765625 131.039062 " fill-opacity="1" fill-rule="nonzero"></path><path fill="#5e17eb" d="M 186.347656 117.71875 L 186.347656 100.640625 C 186.347656 96.730469 180.285156 96.730469 180.285156 100.640625 L 180.285156 117.71875 C 180.285156 121.628906 186.347656 121.628906 186.347656 117.71875 Z M 186.347656 117.71875 " fill-opacity="1" fill-rule="nonzero"></path><path fill="#5e17eb" d="M 242.207031 134.582031 L 250.390625 119.417969 C 252.246094 115.976562 247.011719 112.917969 245.152344 116.359375 L 236.972656 131.523438 C 235.113281 134.964844 240.351562 138.023438 242.207031 134.582031 Z M 242.207031 134.582031 " fill-opacity="1" fill-rule="nonzero"></path><path fill="#5e17eb" d="M 281.5 176.65625 L 296.507812 167.714844 C 299.863281 165.714844 296.816406 160.472656 293.449219 162.476562 L 278.441406 171.421875 C 275.085938 173.421875 278.132812 178.664062 281.5 176.65625 Z M 281.5 176.65625 " fill-opacity="1" fill-rule="nonzero"></path><g clip-path="url(#db2cfbcb6f)"><path fill="#5e17eb" d="M 294.890625 232.589844 L 312.230469 232.589844 C 316.140625 232.589844 316.140625 226.527344 312.230469 226.527344 L 294.890625 226.527344 C 290.980469 226.527344 290.980469 232.589844 294.890625 232.589844 Z M 294.890625 232.589844 " fill-opacity="1" fill-rule="nonzero"></path></g><path fill="#5e17eb" d="M 184.015625 221.820312 L 183.589844 221.820312 C 179.457031 221.820312 176.007812 225.269531 176.007812 229.398438 C 176.007812 233.53125 179.457031 236.980469 183.589844 236.980469 L 184.015625 236.980469 C 188.144531 236.980469 191.59375 233.53125 191.59375 229.398438 C 191.59375 225.269531 188.144531 221.820312 184.015625 221.820312 Z M 184.015625 221.820312 " fill-opacity="1" fill-rule="nonzero"></path><path fill="#5e17eb" d="M 185.050781 229.847656 L 185.050781 161.742188 C 185.050781 159.785156 182.019531 159.785156 182.019531 161.742188 L 182.019531 229.847656 C 182.019531 231.804688 185.050781 231.804688 185.050781 229.847656 Z M 185.050781 229.847656 " fill-opacity="1" fill-rule="nonzero"></path><path fill="#5e17eb" d="M 184.359375 228.632812 L 139.449219 150.925781 L 135.855469 144.710938 C 134.878906 143.019531 132.257812 144.542969 133.238281 146.242188 L 178.148438 223.945312 L 181.742188 230.164062 C 182.71875 231.855469 185.339844 230.328125 184.359375 228.632812 Z M 184.359375 228.632812 " fill-opacity="1" fill-rule="nonzero"></path></svg><style>@media (prefers-color-scheme: light) { :root { filter: none; } }
@media (prefers-color-scheme: dark) { :root { filter: none; } }
</style></svg>